<svg width="43" height="43" viewBox="0 0 43 43" fill="none" xmlns="http://www.w3.org/2000/svg">
<path d="M8.7196 21.1738V12.9081C8.74415 11.2834 9.08905 9.67944 9.73456 8.18818C10.38 6.69696 11.3135 5.34776 12.4813 4.21787C13.6491 3.08802 15.0284 2.19967 16.5402 1.60378C18.0519 1.00788 19.6664 0.716143 21.291 0.745271C22.9157 0.716143 24.5302 1.00788 26.0419 1.60378C27.5536 2.19967 28.933 3.08802 30.1008 4.21787C31.2687 5.34776 32.2021 6.69696 32.8476 8.18818C33.4929 9.67944 33.8379 11.2834 33.8625 12.9081V21.1738" stroke="white" stroke-linecap="round" stroke-linejoin="round"/>
<path d="M4.00528 16.4595H7.14814C7.56492 16.4595 7.96462 16.6251 8.2593 16.9198C8.554 17.2144 8.71957 17.6141 8.71957 18.0309V27.4595C8.71957 27.8763 8.554 28.276 8.2593 28.5706C7.96462 28.8654 7.56492 29.0309 7.14814 29.0309H4.00528C3.17174 29.0309 2.37235 28.6998 1.78295 28.1104C1.19355 27.521 0.862427 26.7216 0.862427 25.8881V19.6023C0.862427 18.7688 1.19355 17.9694 1.78295 17.38C2.37235 16.7906 3.17174 16.4595 4.00528 16.4595Z" stroke="white" stroke-linecap="round" stroke-linejoin="round"/>
<path d="M38.5767 29.0309H35.4339C35.0171 29.0309 34.6173 28.8654 34.3225 28.5706C34.0281 28.276 33.8624 27.8763 33.8624 27.4595V18.0309C33.8624 17.6141 34.0281 17.2144 34.3225 16.9198C34.6173 16.6251 35.0171 16.4595 35.4339 16.4595H38.5767C39.4102 16.4595 40.2097 16.7906 40.799 17.38C41.3883 17.9694 41.7196 18.7688 41.7196 19.6023V25.8881C41.7196 26.7216 41.3883 27.521 40.799 28.1104C40.2097 28.6998 39.4102 29.0309 38.5767 29.0309Z" stroke="white" stroke-linecap="round" stroke-linejoin="round"/>
<path d="M27.5767 37.6738C29.2437 37.6738 30.8424 37.0116 32.0213 35.8327C33.2002 34.6538 33.8624 33.055 33.8624 31.3881V24.3166" stroke="white" stroke-linecap="round" stroke-linejoin="round"/>
<path d="M27.5767 37.6738C27.5767 38.7156 27.1628 39.7151 26.426 40.4518C25.6893 41.1884 24.69 41.6024 23.6481 41.6024H18.9338C17.8919 41.6024 16.8927 41.1884 16.1559 40.4518C15.4192 39.7151 15.0052 38.7156 15.0052 37.6738C15.0052 36.6319 15.4192 35.6325 16.1559 34.8958C16.8927 34.1591 17.8919 33.7452 18.9338 33.7452H23.6481C24.69 33.7452 25.6893 34.1591 26.426 34.8958C27.1628 35.6325 27.5767 36.6319 27.5767 37.6738Z" stroke="white" stroke-linecap="round" stroke-linejoin="round"/>
</svg>
