<svg width="413" height="379" viewBox="0 0 413 379" fill="none" xmlns="http://www.w3.org/2000/svg">
<g clip-path="url(#clip0_53_1753)">
<path d="M15.8914 233.386C27.2836 178.847 63.6101 130.184 124.826 87.4394C155.257 66.2003 185.755 52.0114 216.296 44.8947C246.86 37.7781 276.161 36.7804 304.22 41.9461C332.279 47.0896 358.588 58.1968 383.145 75.2901C393.629 82.5841 403.558 90.8314 413 99.9212V0H0V379H44.926C15.8693 328.541 6.13937 280.01 15.8914 233.386Z" fill="white"/>
<path d="M403.514 247.021C397.264 228.996 387.467 210.44 374.125 191.329C365.237 178.581 354.399 167.585 341.633 158.34C328.866 149.095 314.504 143.064 298.591 140.227C282.655 137.389 265.301 138.32 246.483 143.042C227.666 147.742 207.653 157.519 186.42 172.351C169.442 184.212 154.881 197.115 142.801 211.105C130.7 225.072 122.255 239.926 117.446 255.667C112.636 271.386 111.816 288.146 115.03 305.927C118.222 323.707 126.489 342.153 139.831 361.264C144.308 367.693 148.763 373.59 153.152 379.044H413V280.985C410.784 270.211 407.636 258.904 403.514 247.043V247.021ZM263.328 340.579C231.944 340.579 206.5 315.128 206.5 283.735C206.5 252.342 231.944 226.89 263.328 226.89C294.712 226.89 320.156 252.342 320.156 283.735C320.156 315.128 294.712 340.579 263.328 340.579Z" fill="white"/>
</g>
<defs>
<clipPath id="clip0_53_1753">
<rect width="413" height="379" fill="white"/>
</clipPath>
</defs>
</svg>
